<?xml version="1.0" encoding="iso-8859-1"?>
<!-- Generator: Adobe Illustrator 19.0.0, SVG Export Plug-In . SVG Version: 6.00 Build 0)  -->
<svg version="1.1" id="Capa_1" xmlns="http://www.w3.org/2000/svg" xmlns:xlink="http://www.w3.org/1999/xlink" x="0px" y="0px"
	 viewBox="0 0 512 512" style="enable-background:new 0 0 512 512;" xml:space="preserve">
<linearGradient id="SVGID_1_" gradientUnits="userSpaceOnUse" x1="41.003" y1="257.9961" x2="471.003" y2="257.9961" gradientTransform="matrix(1 0 0 -1 -4.789877e-004 513.9936)">
	<stop  offset="0" style="stop-color:#00F2FE"/>
	<stop  offset="0.021" style="stop-color:#03EFFE"/>
	<stop  offset="0.293" style="stop-color:#24D2FE"/>
	<stop  offset="0.554" style="stop-color:#3CBDFE"/>
	<stop  offset="0.796" style="stop-color:#4AB0FE"/>
	<stop  offset="1" style="stop-color:#4FACFE"/>
</linearGradient>
<path style="fill:url(#SVGID_1_);" d="M450.998,345.997H382.23l-32.413-76.777c-4.296-10.177-16.03-14.944-26.204-10.647
	c-10.176,4.296-14.942,16.028-10.646,26.204l25.845,61.22H275v-20c0-11.046-8.954-20-20-20c-11.046,0-20,8.954-20,20v20h-63.03
	l49.592-118.445c10.343,4.154,21.628,6.446,33.439,6.446c49.626,0,89.999-40.374,89.999-89.999
	c0-42.754-29.968-78.637-69.999-87.756V20c0-11.046-8.954-20-20-20c-11.046,0-20,8.954-20,20v36.243
	c-40.032,9.119-69.999,45.003-69.999,87.756c0,23.06,8.721,44.118,23.033,60.059l-59.428,141.939H61.002c-11.046,0-20,8.954-20,20
	c0,11.046,8.954,20,20,20h50.857l-41.147,98.275c-4.266,10.189,0.536,21.907,10.724,26.172C83.96,511.5,86.577,512,89.152,512
	c7.82,0,15.248-4.617,18.457-12.281l47.614-113.723h79.777v20c0,11.046,8.954,20,20,20c11.046,0,20-8.954,20-20v-20h80.699
	l48.033,113.777C406.955,507.41,414.365,512,422.164,512c2.593,0,5.231-0.508,7.77-1.58c10.176-4.296,14.942-16.028,10.646-26.204
	l-41.464-98.22h51.881c11.046,0,20-8.954,20-20C470.998,354.951,462.044,345.997,450.998,345.997z M255,93.999
	c27.57,0,49.999,22.43,49.999,50s-22.43,50-50,50s-50-22.43-50-50S227.43,93.999,255,93.999z"/>
<g>
</g>
<g>
</g>
<g>
</g>
<g>
</g>
<g>
</g>
<g>
</g>
<g>
</g>
<g>
</g>
<g>
</g>
<g>
</g>
<g>
</g>
<g>
</g>
<g>
</g>
<g>
</g>
<g>
</g>
</svg>
