<svg id="Capa_1" enable-background="new 0 0 512 512" height="512" viewBox="0 0 512 512" width="512" xmlns="http://www.w3.org/2000/svg"><g><g><g><path d="m368.009 71.99-93.562-53.464c-12.089-6.908-25.771-10.541-39.694-10.541-35.582 0-67.674 21.395-81.36 54.239l-17.403 41.768.121-.017c-10.077 13.384-16.122 29.976-16.122 48.02v16.001 56.004 3.036c-4.919 5.627-8.001 12.904-8.001 20.966 0 17.674 14.328 32.003 32.003 32.003h8.404c1.491 25.558 9.913 49.231 23.598 69.079v74.933l-11.358 10.579-11.396 26.073c-2.05 4.999-1.221 10.782 2.356 14.832 11.725 13.275 46.529 24.745 88.287 27.77 47.123 3.413 87.034-5.093 95.423-19.413 1.398-2.386 1.45-5.331.466-7.915l-12.698-31.862-15.07-12.063v-16.001h8.001c8.837 0 16.001-7.164 16.001-16.001v-2.923c37.807-17.99 64.005-56.429 64.005-101.085v-192.016c.002-17.675-14.326-32.002-32.001-32.002z" fill="#fff"/></g><g><path d="m368.009 71.99-93.562-53.464c-12.089-6.908-25.771-10.541-39.694-10.541-35.582 0-67.674 21.395-81.36 54.239l-17.403 41.768.121-.017c-10.077 13.384-16.122 29.976-16.122 48.02v72.006c0-44.187 35.82-80.006 80.006-80.006h176.015c13.256 0 24.002 10.746 24.002 24.002v-64.005c0-17.675-14.328-32.002-32.003-32.002z" fill="#d29b78"/></g><g><path d="m206.458 12.706c-23.559 7.996-43.151 25.727-53.065 49.518l-17.403 41.768.121-.017c-10.077 13.384-16.122 29.976-16.122 48.02v72.006c0-44.187 35.82-80.006 80.006-80.006h40.003v-80.006c.001-22.935-13.801-42.624-33.54-51.283z" fill="#875f69"/></g><g><g><g><path d="" fill="#f5dcb4"/></g><g><path d="m339.772 475.944-12.698-31.862-.022-.02-15.048-4.043v-23.08c-55.736-18.368-96.008-70.772-96.008-132.66v-76.282c0-22.094 17.911-40.004 40.004-40.003l64.004.002c13.256 0 24.002-10.745 24.002-24.001h-144.011c-44.186 0-80.006 35.82-80.006 80.006-3.761 5.62-8.405 18.725-7.933 26.097 1.096 17.109 16.358 29.907 33.503 29.907h6.837c1.484 25.449 10.043 48.953 23.598 68.755v83.257l-11.358 2.579-11.396 26.073c-2.05 4.999-1.221 10.782 2.356 14.832 11.725 13.275 46.529 24.745 88.287 27.77 47.123 3.413 87.034-5.093 95.423-19.413 1.398-2.385 1.45-5.33.466-7.914z" fill="#f5dcb4"/></g></g><g><path d="m399.936 280.006c-9.147 0-17.026 5.575-21.169 13.73-7.918 15.588-24.076 26.273-42.76 26.273h-104.009c-15.771 0-29.41-9.126-35.925-22.386-5.312-10.812-16.067-17.873-28.11-18.13l-15.61-.333c3.744 71.769 62.948 128.855 135.65 128.855 61.861 0 112.008-50.148 112.008-112.008v-16.002h-.075z" fill="#f5dcb4"/></g><g><path d="m220.156 318.224c-10.567-3.275-19.273-10.811-24.083-20.6-5.312-10.812-16.067-17.873-28.11-18.13l-15.61-.333c1.355 24.824 9.606 49.11 23.641 69.6v.014c24.46 35.73 65.417 59.241 112.009 59.241.933 0 1.836-.117 2.764-.14-34.749-18.285-60.88-50.686-70.611-89.652z" fill="#d29b78"/></g><g><path d="m287.856 437.686c-9.937 0-19.653-.963-29.092-2.752-9.835-1.865-18.912 5.674-18.912 15.683v35.073h72.006v-50.255c-7.806 1.397-15.8 2.251-24.002 2.251z" fill="#fff"/></g><g><path d="m256 384.015s14.328 32.003 32.003 32.003h32.003c8.837 0 16.001-7.164 16.001-16.001v-14.668c-.001-.001-28.003 14.333-80.007-1.334z" fill="#d29b78"/></g><g><path d="m330.054 451.926c-16.173 9.242-48.943 14.05-86.317 11.343-35.921-2.602-66.653-11.46-82.018-22.333l-8.626 19.734c-2.05 4.999-1.221 10.782 2.356 14.832 11.725 13.275 46.529 24.745 88.287 27.77 47.123 3.413 87.034-5.093 95.423-19.413 1.398-2.386 1.45-5.331.466-7.915z" fill="#d29b78"/></g><g><path d="m216.996 460.031c-24.084-4.12-43.905-11.047-55.278-19.096l-8.626 19.734c-2.05 4.999-1.221 10.782 2.356 14.832 10.307 11.67 38.458 21.94 73.484 26.309z" fill="#875f69"/></g><g><path d="" fill="#d29b78"/></g><g><path d="m159.992 216.001c13.256 0 24.002-10.746 24.002-24.002v-46.397c-33.789 6.859-59.829 35.013-63.534 69.842-.019.183-.048.371-.066.554v.002h39.598z" fill="#d29b78"/></g><g><path d="m358.905 308.375-4.848-8.357c-3.679-6.341-11.044-9.152-17.878-6.975-10.798 3.44-22.265 5.297-34.155 5.297s-23.357-1.858-34.155-5.297c-6.834-2.177-14.199.633-17.878 6.975l-4.848 8.357c-2.492 4.296-.584 9.831 3.931 11.648 16.432 6.611 34.256 10.321 52.951 10.321s36.519-3.71 52.951-10.321c4.513-1.817 6.421-7.352 3.929-11.648z" fill="#d29b78"/></g><g><path d="m248.333 320.509c0 21.817 23.731 39.504 53.004 39.504s53.004-17.686 53.004-39.504z" fill="#fff"/></g></g></g><g fill="#413750"><path d="m283.533 282.833c-2.822 3.389-2.362 8.424 1.027 11.245 5.616 4.676 13.113 7.251 21.11 7.251s15.494-2.575 21.111-7.252c3.388-2.822 3.848-7.856 1.027-11.245-2.823-3.388-7.856-3.849-11.245-1.027-2.713 2.259-6.682 3.554-10.892 3.554-4.209 0-8.179-1.295-10.892-3.555-3.389-2.82-8.425-2.36-11.246 1.029z"/><path d="m238.503 252.301c1.532-2.151 4.802-5.76 9.497-5.76s7.965 3.609 9.497 5.76c1.558 2.188 4.016 3.355 6.511 3.355 1.602 0 3.219-.481 4.624-1.481 3.593-2.557 4.431-7.543 1.874-11.135-5.641-7.924-13.844-12.468-22.506-12.468s-16.865 4.544-22.506 12.468c-2.558 3.592-1.719 8.578 1.874 11.135 3.592 2.557 8.577 1.718 11.135-1.874z"/><path d="m360.008 230.572c-8.661 0-16.864 4.544-22.505 12.468-2.558 3.592-1.719 8.578 1.873 11.135s8.578 1.719 11.135-1.873c1.532-2.152 4.803-5.761 9.497-5.761 4.695 0 7.965 3.609 9.497 5.76 1.558 2.188 4.016 3.355 6.511 3.355 1.602 0 3.219-.481 4.624-1.481 3.593-2.557 4.431-7.543 1.874-11.135-5.641-7.924-13.844-12.468-22.506-12.468z"/><path d="m281.237 206.441c4.356-.682 7.335-4.767 6.654-9.123-.682-4.356-4.76-7.335-9.123-6.654-36.008 5.636-57.467 16.308-58.363 16.76-3.938 1.985-5.521 6.786-3.537 10.724 1.404 2.785 4.217 4.393 7.137 4.393 1.208 0 2.435-.275 3.587-.856.196-.1 20.089-9.991 53.645-15.244z"/><path d="m368.13 317.587-12.61-10.698c-3.362-2.853-8.4-2.44-11.254.923-1.169 1.378-1.78 3.037-1.874 4.712h-83.417c-.094-1.675-.705-3.334-1.874-4.712-2.853-3.362-7.89-3.776-11.254-.923l-12.61 10.698c-3.363 2.853-3.776 7.891-.923 11.254 1.579 1.862 3.828 2.819 6.093 2.819 1.169 0 2.341-.259 3.428-.777 6.096 21.21 30.453 37.114 59.505 37.114 28.847 0 53.064-15.681 59.372-36.667.736.216 1.494.33 2.251.33 2.264 0 4.513-.958 6.093-2.819 2.85-3.362 2.436-8.401-.926-11.254zm-66.793 34.441c-20.885 0-38.494-10.009-43.557-23.535h87.114c-5.063 13.526-22.672 23.535-43.557 23.535z"/><path d="m370.245 64.071-91.836-52.478c-13.273-7.584-28.369-11.593-43.656-11.593-38.928 0-73.756 23.219-88.729 59.153l-17.091 41.018c-10.638 14.547-16.928 32.464-16.928 51.825v72.039c-5.021 6.684-8.001 14.984-8.001 23.969 0 22.049 17.938 39.987 39.988 39.987h1.073c2.53 22.614 10.468 44.393 22.945 63.348v68.213c-6.162 3.617-9.117 7.668-10.405 11.277-.1.187-11.681 26.645-11.681 26.645-.024.056-.048.112-.071.168-3.215 7.836-1.74 16.922 3.758 23.147 13.563 15.356 50.34 27.308 93.695 30.448 7.061.512 14.077.764 20.936.764 15.82 0 30.795-1.345 43.491-3.964 20.125-4.152 33.065-10.928 38.463-20.141 2.568-4.385 2.947-9.776 1.039-14.79-.015-.039-12.38-31.065-12.38-31.065-1.616-5.756-6.588-10.994-14.866-15.639v-2.398h.016c12.487 0 22.771-9.593 23.881-21.795 18.273-9.629 33.775-23.801 45.025-41.245 12.485-19.359 19.085-41.82 19.085-64.954v-192.018c0-21.298-16.738-38.757-37.751-39.921zm5.748 17.273c9.33 3.299 16.034 12.204 16.034 22.648v36.325c-4.714-2.738-10.186-4.307-16.018-4.307h-.016zm-32.002-1.37h16.033v56.037h-16.033zm-183.227-14.679c12.485-29.964 41.528-49.326 73.989-49.326 12.513 0 24.869 3.281 35.733 9.49l67.457 38.546h-137.947c-15.811 0-30.659 4.194-43.496 11.525zm167.258 14.679v56.037h-16.033v-56.037zm-32.003 0v56.037h-16.033v-56.037zm-32.002 0v56.037h-16.033v-56.037zm-32.003 0v56.037h-16.033v-56.037zm-32.002 0v56.037h-.016c-5.469 0-10.822.506-16.017 1.465v-55.684c5.155-1.176 10.511-1.818 16.017-1.818zm-48.036 18.402c4.808-4.31 10.198-7.979 16.033-10.884v54.54c-5.65 2.212-11.019 4.99-16.033 8.269zm-24.003 53.62c0-11.886 2.912-23.099 8.033-32.991v44.664c-2.905 3.079-5.592 6.364-8.033 9.835zm197.612 309.918 6.739 16.907c.19.526.134.924.093 1.001-4.954 8.455-36.333 19.226-87.957 15.486-44.569-3.229-74.205-15.27-82.88-25.093-1.489-1.686-1.87-4.208-.981-6.447l5.245-12c4.556 3.552 10.803 6.811 18.733 9.759 15.748 5.854 36.797 9.945 59.271 11.519 6.645.465 13.195.695 19.552.695 15.145 0 29.188-1.305 40.746-3.843 9.136-2.005 16.288-4.675 21.439-7.984zm-141.607-17.899v-72.577c20.644 21.632 47.758 36.448 77 42.019 7.122 6.543 16.614 10.545 27.025 10.545h16.017v29.516c-1.703.437-3.572.864-5.632 1.27-14.667 2.887-33.639 3.714-53.424 2.33-19.786-1.385-38.458-4.848-52.579-9.751-3.295-1.145-6.07-2.273-8.407-3.352zm159.996-60.336c-.177-4.253-3.671-7.649-7.968-7.649-4.41 0-7.985 3.575-7.985 7.985v16.001c0 4.421-3.596 8.017-8.017 8.017h-32.002c-13.243 0-24.018-10.774-24.018-24.018 0-4.41-3.575-7.985-7.985-7.985s-7.984 3.575-7.984 7.985c0 3.46.442 6.818 1.272 10.021-21.654-6.911-41.365-19.614-56.649-36.745-19.138-21.452-30.599-49.064-32.273-77.75-.246-4.222-3.742-7.519-7.971-7.519h-8.404c-13.244 0-24.018-10.774-24.018-24.018s10.774-24.018 24.018-24.018c4.41 0 7.985-3.575 7.985-7.985s-3.575-7.985-7.985-7.985c-5.226 0-10.216 1.018-14.796 2.85 6.195-33.459 35.574-58.886 70.8-58.886h176.014c8.832 0 16.018 7.185 16.018 16.017v37.789c-10.911-4.339-30.873-11.302-54.762-15.118-4.355-.698-8.448 2.271-9.144 6.625-.695 4.355 2.271 8.449 6.625 9.144 27.883 4.453 50.541 13.711 57.28 16.655v72.915c.002 35.577-18.506 68.721-48.051 87.672z"/></g></g></svg>