<svg id="Capa_1" enable-background="new 0 0 512 512" height="512" viewBox="0 0 512 512" width="512" xmlns="http://www.w3.org/2000/svg"><g><path d="m256 0c-141.385 0-256 114.615-256 256 0 73.887 31.314 140.449 81.38 187.177l174.62-44.809 174.62 44.808c50.066-46.727 81.38-113.289 81.38-187.176 0-141.385-114.615-256-256-256z" fill="#2196f3"/><path d="m190.606 321.394 80.972 80.972 159.042 40.811c37.314-34.826 64.202-80.674 75.483-132.356l-179.938-179.938z" fill="#1871b8"/><g><g><path d="m256 327.809h-56.003v17.286l-11.39 4.446-.532 8.011-15.183-1.877-16.554 6.461c-27.062 10.563-49.301 30.698-62.492 56.581l-12.466 24.46c45.737 42.687 107.122 68.823 174.62 68.823 2.844 0 41.114-104.787 41.114-104.787z" fill="#4b5055"/><path d="m418.154 418.718c-13.191-25.883-35.43-46.018-62.492-56.581l-16.554-6.461-13.986.846-1.73-6.981-11.39-4.446v-17.286h-56.002v184.191c67.498 0 128.883-26.136 174.62-68.823z" fill="#373c41"/></g><g><path d="m256 372.087h-26.976v-44.278h26.976l24.414 24.981z" fill="#fffbe4"/><path d="m256 327.809h26.976v44.278h-26.976z" fill="#fbf1b5"/></g><g id="XMLID_25_"><path id="XMLID_27_" d="m256 151.152 62.095 97.604-62.095 97.603c-53.905 0-97.604-43.698-97.604-97.604v-43.168z" fill="#ffccbd"/><path id="XMLID_26_" d="m256 151.152v195.207c53.905 0 97.604-43.698 97.604-97.604v-43.168z" fill="#ffbda9"/></g><g><circle cx="206.726" cy="236.501" fill="#4b5055" r="9.774"/><circle cx="305.274" cy="236.501" fill="#373c41" r="9.774"/></g><path d="m157.924 198.75c0-53.905 43.699-97.604 97.604-97.604l11.745 38.204-11.745 30.978c-.003.003-28.868 33.184-97.603 35.259v-.001-6.836z" fill="#b1705b"/><path d="m353.604 198.75c0-53.905-43.699-97.604-97.604-97.604v69.181c.003.003 28.868 33.184 97.603 35.259v-.001-6.835z" fill="#9f5f4b"/><g><path d="m256 302.142h-5.908c-8.284 0-15-6.716-15-15h20.908l11.922 8.463z" fill="#ff5b5b"/><path d="m261.908 302.142h-5.908v-15h20.908c0 8.284-6.716 15-15 15z" fill="#ff4a4a"/></g><path d="m172.891 355.676 78.146 68.981 4.963-4.509 4.963-6.736-72.356-63.871z" fill="#9f5f4b"/><path d="m256 409.031v11.117l4.963 4.509 78.146-68.981-15.716-6.135z" fill="#885140"/><g><path d="m256 420.148h-10.072v21.323h-17.25v20.143h17.25v39.827h10.072l5.568-38.646z" fill="#f9d07f"/><path d="m283.322 441.471h-17.25v-21.323h-10.072v81.293h10.072v-39.827h17.25z" fill="#e7b964"/></g></g></g></svg>